<svg id="Layer_1" data-name="Layer 1" xmlns="http://www.w3.org/2000/svg" viewBox="0 0 556.954 829.634"><title>1</title><path d="M261.517,550.983h0c6.949,26.608,19.244,42.242,58.862,49.983a70.526,70.526,0,0,1-28.021-15.745c30.21,13.142,75.4,9.985,98.529,8.231-10.335,7.165-25.922,10.123-45.008,11.271,39.544,2.353,69.041-4.161,76.433-39.288a114.008,114.008,0,0,0,3.676-15.256c.857-4.9,14.324-7.955,21.5-15.3-16.564,1.609-18.442,2.9-24.015-1.589-15.719-12.669-18.631-28.8-26.191-39.818a97.4,97.4,0,0,1,22.713,13.914c-30.054-44.058-142.15-47.131-160.934-4.782A71.785,71.785,0,0,1,279,490.383C265.771,502.238,253.74,525.69,261.517,550.983Zm15.316-7.545c-6.059-22.638-.207-42.212,21.4-50.886C280.215,508.509,275.367,525.179,276.833,543.438Zm138.912,7.4c-6.45,28-27.482,34.1-53.165,33.221C385.331,581.875,405.124,574.154,415.745,550.84Z" transform="translate(-183.369 -105)"/><path d="M422.315,580.93c-11.113,23.453-31.581,36.968-61.637,40.3C389.129,626.888,410.011,615.366,422.315,580.93Z" transform="translate(-183.369 -105)"/><path d="M309.676,617.018c-22.646-6.931-38.045-20.605-47.472-38.592C266.407,600.717,282.9,613.359,309.676,617.018Z" transform="translate(-183.369 -105)"/><path d="M321.516,433.39c47.159,5.336,88,18.341,111.338,60.564C418.554,442.639,374,433.351,321.516,433.39Z" transform="translate(-183.369 -105)"/><path d="M448.026,556.946c-4.84,4.808-12.178,32.367-12.178,32.367s8.18-18.648,12.906-26.781,10.365-6.362,10.365-6.362S454.535,550.481,448.026,556.946Z" transform="translate(-183.369 -105)"/><path d="M413.524,641.19c-24.209,35.732-17.206,50.791,1.065,52.975C402.83,688.191,395.966,673.852,413.524,641.19Z" transform="translate(-183.369 -105)"/><path d="M277.061,645.194c-10.317-1.658-22.029-11.953-22.029-11.953s10.587,17.076,23.224,17.247,48.155-7.684,58.4-2.049C325.387,637,287.682,646.9,277.061,645.194Z" transform="translate(-183.369 -105)"/><path d="M384.983,886.655s11.781,24.59,17.588,26.3,47.132-1.024,47.132-1.024-40.132-2.22-47.132-5.806S384.983,886.655,384.983,886.655Z" transform="translate(-183.369 -105)"/><path d="M309.676,812.2c-3.311-21.864-14.845-36.6-30.054-48.156,12.427,13.589,22.152,29.933,25.519,52.766,6.434,2.035,13.58,7.95,21.2,16.426A61.389,61.389,0,0,0,309.676,812.2Z" transform="translate(-183.369 -105)"/><path d="M453.118,476.309c1.178-20.038.805-38.654-3.3-53.848a151.014,151.014,0,0,1-.287,28.557c-6.1-16.495-19.624-29.52-39.444-39.6C428.649,429.683,446.6,448.434,453.118,476.309Z" transform="translate(-183.369 -105)"/><path d="M256.853,226.765a429.392,429.392,0,0,1,134.9-83.333C320.006,161.3,282.866,191.763,256.853,226.765Z" transform="translate(-183.369 -105)"/><path d="M348.867,719.818c.341-5.433,2.647-29.371,2.647-29.371s-7.788,31.858-6.233,34.409c2.181,3.578,11.526,5.72,11.526,5.72S348.525,725.252,348.867,719.818Z" transform="translate(-183.369 -105)"/><path d="M461.846,879.654V872.31c-12.391-6.853-32.361-8.3-53.3-9.05C429,866.756,448.4,871.014,461.846,879.654Z" transform="translate(-183.369 -105)"/><path d="M386.406,476.309c-31.353-18.91-64.9-27.531-104.735-6.717C317.024,459.016,351.887,462.663,386.406,476.309Z" transform="translate(-183.369 -105)"/><path d="M447.483,498.28c8.507,4.643,12.6,12.876,14.363,23C461.846,502.179,455.06,500.576,447.483,498.28Z" transform="translate(-183.369 -105)"/><path d="M299.264,603.8c19.918,11.713,44.48,13.91,73.011,8C345.514,612.347,320.805,610.173,299.264,603.8Z" transform="translate(-183.369 -105)"/><path d="M461.846,376.071c2.435-15.818,5.466-38.077,5.909-50.311.971-26.785-2.7-98.113-5.909-148.079-3.209,49.966-6.879,121.294-5.908,148.079C456.381,337.994,459.412,360.253,461.846,376.071Z" transform="translate(-183.369 -105)"/><path d="M503.7,507.388a97.4,97.4,0,0,1,22.713-13.914c-7.559,11.015-10.471,27.149-26.19,39.818-5.573,4.492-7.451,3.2-24.016,1.589,7.172,7.343,20.64,10.4,21.5,15.3a114.162,114.162,0,0,0,3.676,15.256c7.392,35.127,36.889,41.641,76.433,39.288-19.086-1.148-34.672-4.106-45.007-11.271,23.128,1.754,68.319,4.911,98.529-8.231a70.533,70.533,0,0,1-28.021,15.745c39.617-7.741,51.912-23.375,58.862-49.983h0c7.777-25.293-4.255-48.745-17.488-60.6a71.805,71.805,0,0,1,19.949,12.223C645.853,460.257,533.757,463.33,503.7,507.388Zm4.246,43.452c10.62,23.314,30.413,31.035,53.164,33.221C535.43,584.939,514.4,578.836,507.948,550.84Zm138.912-7.4c1.466-18.259-3.382-34.929-21.4-50.886C647.066,501.226,652.919,520.8,646.86,543.438Z" transform="translate(-183.369 -105)"/><path d="M501.378,580.93c12.3,34.436,33.185,45.958,61.637,40.3C532.959,617.9,512.491,604.383,501.378,580.93Z" transform="translate(-183.369 -105)"/><path d="M661.488,578.426c-9.426,17.987-24.826,31.661-47.472,38.592C640.791,613.359,657.286,600.717,661.488,578.426Z" transform="translate(-183.369 -105)"/><path d="M602.176,433.39c-52.483-.039-97.038,9.249-111.338,60.564C514.182,451.731,555.018,438.726,602.176,433.39Z" transform="translate(-183.369 -105)"/><path d="M507.8,661.075c-21.441-39.617-35.4-84.7-38.593-87.772s-7.362,2.671-7.362,2.671-4.174-5.745-7.362-2.671-17.152,48.155-38.592,87.772c-19.315,35.688,22.085,31.99,22.085,31.99-7.855-.569-15.21-3.505-12.637-8.547,0,0,9.5-2.385,16.783-.437.878.235-1.385-3.026-7.106-4.9,9.99,1.025,15.711,3.757,18.784,7.286a31.865,31.865,0,0,1,5.806,10.3c-2.5-10.246-1.8-17.2,2.239-33.353,4.041,16.153,4.744,23.107,2.239,33.353a31.887,31.887,0,0,1,5.806-10.3c3.074-3.529,8.795-6.261,18.784-7.286-5.72,1.879-7.983,5.14-7.105,4.9,7.281-1.948,16.782.437,16.782.437,2.573,5.042-4.782,7.978-12.637,8.547C485.715,693.065,527.115,696.763,507.8,661.075Zm-88.665,11.271a223.735,223.735,0,0,0,18.443-36.031C434.914,653.823,428.249,666.082,419.136,672.346Zm66.978-36.031a223.731,223.731,0,0,0,18.442,36.031C495.443,666.082,488.778,653.823,486.114,636.315Z" transform="translate(-183.369 -105)"/><path d="M474.939,562.532c4.726,8.133,12.906,26.781,12.906,26.781s-7.338-27.559-12.179-32.367c-6.509-6.465-11.092-.776-11.092-.776S470.213,554.4,474.939,562.532Z" transform="translate(-183.369 -105)"/><path d="M509.1,694.165c18.271-2.184,25.274-17.243,1.065-52.975C527.726,673.852,520.862,688.191,509.1,694.165Z" transform="translate(-183.369 -105)"/><path d="M739.015,417.566c4.1-53.962,1.708-142.93-54.644-216.188s-177.12-97.848-222.525-96.311c-45.4-1.537-166.172,23.054-222.524,96.311S180.579,363.6,184.677,417.566c2.926,38.519,35.232,113.184,45.632,136.386-1.556,15.584-5.2,27.008-9.865,34.213-6.471.137-13.644-.1-22.561,1.189-8.377,1.214,32.694,68.972,59.607,82.647,10.361,32.281,4.769,67.494,1.413,99.684,12.978,14,23.622,30.271,28.745,59.13,37.739,16.222,89.642,83.249,105.7,100.409,8.31,8.88,40.642-2.391,68.5-2.391s60.185,11.271,68.5,2.391c16.06-17.16,67.964-84.187,105.7-100.409,5.123-28.859,15.767-45.127,28.745-59.13-3.356-32.19-8.949-67.4,1.413-99.684,26.913-13.675,67.984-81.433,59.607-82.647-8.918-1.292-16.09-1.052-22.562-1.189-4.662-7.2-8.308-18.629-9.865-34.213C703.784,530.75,736.09,456.085,739.015,417.566ZM626.653,821.594c-40.642,15.368-90.564,91.544-99.9,98.147s-51.512-1.153-64.908-1.153-55.572,7.756-64.908,1.153-59.256-82.779-99.9-98.147c-2.514-27.367-11.742-40.322-25.956-54.474,4.723-35.273,7.526-68.6,1.32-92.817q1.7-.082,3.431-.214c4.836,16.248,6.748,38.293,8.336,60.984.871-21.327,1.693-42.63-2.329-61.552,1.933-.215,3.879-.457,5.83-.715,3.437,12.414,4.683,28.609,5.329,45.839,1.446-17.185,2.174-33.433.58-46.654l4.675-.665c2.564,9.751,3.6,21.708,4.165,34.339,1.279-12.7,2-24.788,1.045-35.056q1.771-.234,3.518-.446c6.789,29.493,4.278,44.074,1.347,56.579a109.571,109.571,0,0,0-3.027,14.032h0a62.8,62.8,0,0,0,3.177,31.639,160.836,160.836,0,0,1,0-16.25c9.145,31.422,34.473,69.169,57.716,87.287,0,0-14.045-16.446-20.776-30.965-.177-1.975-.683-6.83-.683-6.83-2.473-6.946-9-10.8-13.12-23.85A54.032,54.032,0,0,0,343.3,795.381c-.513-8.86.769-12.584,2.4-13.95,3.727,5.67,7.834,8.743,13.5,11.645,3.9,10.332,10.43,13.391,16.469,13.234,4.325,8.172,10.449,9.181,16.763,9.511l3.453,12.945-.458-9.621a22.213,22.213,0,0,0,17.069,7.7l4.935,14.9-1.823-12.323c6.272,5.594,12.746,6.043,18.294,5.388,1.166,6.11,2.716,10.961,4.646,13.652l-1.126-12.906c11.844,6.347,17.642,7.092,21.62,5.39l2.806,12.39V839.182h0v14.153l2.806-12.39c3.977,1.7,9.776.957,21.619-5.39l-1.126,12.906c1.93-2.691,3.48-7.542,4.647-13.652,5.547.655,12.021.206,18.293-5.388l-1.822,12.323,4.934-14.9a22.215,22.215,0,0,0,17.07-7.7l-.459,9.621,3.454-12.945c6.313-.33,12.437-1.339,16.763-9.511,6.039.157,12.572-2.9,16.469-13.234,5.668-2.9,9.775-5.975,13.5-11.645,1.631,1.366,2.912,5.09,2.4,13.95a54.073,54.073,0,0,0,11.676-13.575c-4.126,13.054-10.647,16.9-13.12,23.85,0,0-.506,4.855-.684,6.83-6.731,14.519-20.776,30.965-20.776,30.965,23.244-18.118,48.571-55.865,57.717-87.287a160.528,160.528,0,0,1,0,16.25,62.8,62.8,0,0,0,3.178-31.639h0a109.754,109.754,0,0,0-3.028-14.032c-2.93-12.5-5.441-27.086,1.348-56.579q1.745.21,3.517.446c-.952,10.268-.233,22.357,1.045,35.056.567-12.631,1.6-24.588,4.166-34.339l4.675.665c-1.594,13.221-.866,29.469.579,46.654.647-17.23,1.893-33.425,5.33-45.839,1.95.258,3.9.5,5.83.715-4.023,18.922-3.2,40.225-2.329,61.552,1.587-22.691,3.5-44.736,8.336-60.984q1.73.132,3.431.214c-6.206,24.214-3.4,57.544,1.32,92.817C638.394,781.272,629.167,794.227,626.653,821.594ZM364.116,740.519l.675,9.781,2.753-9.465a12.1,12.1,0,0,1,6.05,6.348,89.232,89.232,0,0,0-.96,19.369c-6.787,3.28-9.323-5.97-9.928-8.806a44.856,44.856,0,0,1,.873-16.723A3.084,3.084,0,0,1,364.116,740.519Zm28.6,8.925.649,13.151,3.247-15.625a4.482,4.482,0,0,1,1.665-.1c2.74.369,5.605,3.308,8.068,8.278l.439.886c-.248,7.749.424,17.372,1.41,27.633-4.262,1.454-9.456,1.565-16.051-8.187l-.587-.695c-1.349-7.949-1.756-15.9-.155-23.906l.694-.779C392.3,749.869,392.505,749.652,392.711,749.444Zm19.549,5.049.681,13.908,3.265-15.84c3.457-.888,8.03-.025,14.181,5.5a298.1,298.1,0,0,0,.878,32.018c-7.557,2.86-13.688.856-19.194-6.282l-.2-.19c-1.193-9.946-1.954-19.429-1.453-27.56l.225-.236C411.136,755.367,411.675,754.918,412.26,754.493Zm22.834,4.165.694,17.792,3.355-20.388a20.533,20.533,0,0,1,7.771-1.421,23.321,23.321,0,0,1,12.38,4.376c.207,11.836,1.533,23.733.246,36.344-10.717,3.72-19.026,1.828-24.479-5.307l-.221-.194a145.266,145.266,0,0,1-.985-28.9A5,5,0,0,1,435.094,758.658Zm49.456-2.6L487.9,776.45l.695-17.792a4.988,4.988,0,0,1,1.238,2.3,145.274,145.274,0,0,1-.984,28.9l-.221.194c-5.454,7.135-13.762,9.027-24.48,5.307-1.286-12.611.04-24.508.247-36.344a23.318,23.318,0,0,1,12.379-4.376A20.534,20.534,0,0,1,484.55,756.062Zm22.937-3.5,3.265,15.84.68-13.908c.585.425,1.125.874,1.621,1.314l.225.236c.5,8.131-.26,17.614-1.453,27.56l-.2.19c-5.506,7.138-11.638,9.142-19.195,6.282a297.816,297.816,0,0,0,.879-32.018C499.457,752.536,504.029,751.673,507.487,752.561Zm19.6-5.591,3.248,15.625.648-13.151c.207.208.414.425.621.659l.694.779c1.6,8,1.194,15.957-.155,23.906l-.586.695c-6.6,9.752-11.79,9.641-16.051,8.187.985-10.261,1.658-19.884,1.41-27.633l.439-.886c2.462-4.97,5.327-7.909,8.067-8.278A4.481,4.481,0,0,1,527.085,746.97Zm29.063-6.135L558.9,750.3l.675-9.781a3.047,3.047,0,0,1,.536.5,44.856,44.856,0,0,1,.874,16.723c-.605,2.836-3.142,12.086-9.929,8.806a89.169,89.169,0,0,0-.96-19.369A12.1,12.1,0,0,1,556.148,740.835Zm54.392-71.288c-1.874,6.556-3.7,17.751-3.871,36.658-2.07-11.422-3.54-31.183-1.166-36.658ZM527.579,813.438l-.595-12.071-3.455,16.625a16.184,16.184,0,0,1-10.829,4.536c2.051-6.574,2.951-17.706,2.664-33.539,5.83,1.106,11.071-.836,16.648-6.2a99.929,99.929,0,0,1-3.243,28.784Zm-19.787,9.888-.619-12.654-3.455,16.759c-3.726,2.9-7.9,3.9-13.234,3.3a211.082,211.082,0,0,0,1.861-35.659,26.192,26.192,0,0,0,19.549-4.653c.582,11.783-.418,22.058-2.86,30.959Zm-155.1-39.744L350.114,771l-.525,8.4-.008-.013a28.965,28.965,0,0,1-1.265-14.638,13.4,13.4,0,0,0,10.762.051,114.1,114.1,0,0,0,.742,24.847A28.738,28.738,0,0,1,352.693,783.582Zm14.71,15.652-2.612-11.559-.446,6.452c-.2-.494-.4-1.015-.585-1.57l-.459-.887a109.659,109.659,0,0,1-.857-23.6,10.388,10.388,0,0,0,10.184,3.683c-.2,10.9.28,21.148,1.95,30.234A8.967,8.967,0,0,1,367.4,799.234Zm15.828,9.812-3.6-16.248-.53,10.073-1.012-2.031h0c-1.142-6.693-1.463-14.979-1.386-24.038,3.631,3.714,7.712,4.134,11.447,3.538a120.871,120.871,0,0,0,3.248,31.973A13.142,13.142,0,0,1,383.231,809.046Zm16.933,8.946-3.455-16.625-.6,12.071-1.19-1.866a99.928,99.928,0,0,1-3.244-28.784c5.577,5.365,10.819,7.307,16.649,6.2-.287,15.833.612,26.965,2.663,33.539A16.184,16.184,0,0,1,400.164,817.992Zm19.811,9.439-3.455-16.759-.619,12.654-1.242-1.944c-2.442-8.9-3.443-19.176-2.861-30.959a26.193,26.193,0,0,0,19.549,4.653,211.186,211.186,0,0,0,1.861,35.659C427.87,831.334,423.7,830.329,419.975,827.431Zm21.551,5.892L437.4,812.259v18.6c-.033-.021-.066-.041-.1-.063l-.879-.562-.1.018c-1.837-6.847-1.85-18.323-1.35-32.945,5.828,3.973,18.443,4.895,24.506,3.343.655,10.5.085,23.443-.182,35.409C454.076,838.61,447.941,836.847,441.526,833.323Zm20.32-72.351c.045-.038.09-.073.135-.11l-.135.26-.134-.26C461.756,760.9,461.8,760.934,461.846,760.972Zm2.551,75.089c-.268-11.966-.837-24.9-.182-35.409,6.063,1.552,18.677.63,24.506-3.343.5,14.622.487,26.1-1.35,32.945l-.1-.018-.878.562-.1.063v-18.6l-4.122,21.064C475.752,836.847,469.617,838.61,464.4,836.061ZM535.54,780.34c3.736.6,7.816.176,11.448-3.538.077,9.059-.245,17.345-1.386,24.038h0l-1.012,2.031L544.06,792.8l-3.6,16.248a13.145,13.145,0,0,1-8.17,3.267A120.871,120.871,0,0,0,535.54,780.34Zm15.525-8.592a10.386,10.386,0,0,0,10.183-3.683,109.6,109.6,0,0,1-.857,23.6l-.459.887c-.19.555-.385,1.076-.585,1.57l-.445-6.452-2.612,11.559a8.968,8.968,0,0,1-7.175,2.748C550.784,792.9,551.264,782.652,551.065,771.748Zm13.549-6.95a13.4,13.4,0,0,0,10.763-.051,28.987,28.987,0,0,1-1.265,14.638l-.008.013-.525-8.4L571,783.582a28.72,28.72,0,0,1-7.127,6.063A114.034,114.034,0,0,0,564.614,764.8Zm7.2-27.92,2.884,10.944.66-10.556c1.283,7.6,1.261,15.756-.276,21.412-3,2.44-6.378,2.5-10.545.25a58.112,58.112,0,0,0-.477-16.6C566.762,739.254,569.326,737.547,571.819,736.878Zm-29.093,7.946,3.009,13.587.578-11,.458.965a45.12,45.12,0,0,1,.4,17.934l-.486,1.137c-2.756,10.269-6.654,10.38-10.989,8.025a98.082,98.082,0,0,0-.069-25.7C538.116,745.673,540.763,744.713,542.726,744.824ZM388,775.467c-4.335,2.355-8.233,2.244-10.99-8.025l-.486-1.137a45.12,45.12,0,0,1,.4-17.934l.458-.965.578,11,3.009-13.587c1.962-.111,4.609.849,7.1,4.94A98.039,98.039,0,0,0,388,775.467ZM359.15,758.928c-4.167,2.249-7.545,2.19-10.544-.25-1.537-5.656-1.56-13.816-.276-21.412l.66,10.556,2.883-10.944c2.494.669,5.058,2.376,7.754,5.449A58.148,58.148,0,0,0,359.15,758.928Zm-42.127-52.723c-.17-18.907-2-30.1-3.87-36.658h5.037C320.564,675.022,319.094,694.783,317.023,706.205Zm389.32-107.629c12.223,2.144-33.054,56.312-50.319,60.279-18.329,4.213-41.972-6.7-65.232-.341-21.858,5.977-33.128,48.326-33.128,48.326a123.063,123.063,0,0,1,16.561-24.522c2.808,19.672,7.978,35.62,7.791,44.362-.082,3.843-1.4,4.547-4.112,6.191-5.255-.456-10.5,1.036-15.681,4.484a6.844,6.844,0,0,0-3.862-1.378c-3.158-.127-6.544,1.778-10.526,5.94a7.189,7.189,0,0,0-2.9-1.146c-2.822-.454-6.066.6-10.048,3.3l-1.155-10.344-1.181,10.091a9.27,9.27,0,0,0-7.331-1.63,14.78,14.78,0,0,0-9.67,5.761l-2.442-12.876v14.169c-4.649-2.119-11.632-3.517-20.618,2.661-.861-5.724-2.1-11.29-4.924-16.2a112.236,112.236,0,0,1,1.4,16.242c-9.038-3.866-16.444-3.336-24.525,1.745l-2.592-11.441-2.591,11.441c-8.082-5.081-15.488-5.611-24.525-1.745a112.234,112.234,0,0,1,1.4-16.242c-2.819,4.914-4.063,10.48-4.923,16.2-8.986-6.178-15.97-4.78-20.618-2.661V735.073l-2.443,12.876a14.776,14.776,0,0,0-9.669-5.761,9.272,9.272,0,0,0-7.332,1.63l-1.181-10.091-1.154,10.344c-3.983-2.7-7.227-3.754-10.048-3.3a7.2,7.2,0,0,0-2.9,1.146c-3.981-4.162-7.368-6.067-10.525-5.94a6.844,6.844,0,0,0-3.862,1.378c-5.178-3.448-10.427-4.94-15.682-4.484-2.707-1.644-4.029-2.348-4.111-6.191-.187-8.742,4.982-24.69,7.791-44.362a123.063,123.063,0,0,1,16.561,24.522s-11.271-42.349-33.129-48.326c-23.259-6.36-46.9,4.554-65.232.341-17.265-3.967-62.541-58.135-50.318-60.279,12.978-2.277,24.476-2.733,33.925-22.6-5.258,4.918-9.942,7.84-14.5,9.586,6.459-19.742,4.878-44.034.87-69.7,5.89,8.572,11.92,15.661,11.92,15.661s-11.38-19.761-15.027-39.162c-7.212-38.369,56.407-56.693,56.407-56.693s-26.818,4.679-46.183,17.891c-.164-15.2-5.451-29.562-17.4-49.995,7.558,20.752,11.486,40.534,9.573,56.266-8.665,8.278-13.9,19.066-10.754,32.92-4.855-13.705-8.15-25.149-13.937-46.609a619.126,619.126,0,0,0,13.337,70.537c-9.834-26.04-24.009-67.893-26.566-98.77-7.286-87.982,12.291-150.957,35.523-187.761-4.7,20.723-3.3,44.383.679,67.543,1.763-31.773,3.631-64.142,17.4-90.6,61.85-64.015,148.9-85.488,209.227-88.015,60.323,2.527,147.378,24,209.228,88.015,13.765,26.462,15.632,58.831,17.4,90.6,3.978-23.16,5.377-46.82.68-67.543,23.231,36.8,42.808,99.779,35.522,187.761-2.557,30.877-16.731,72.73-26.566,98.77a618.912,618.912,0,0,0,13.338-70.537c-5.787,21.46-9.083,32.9-13.938,46.609,3.149-13.854-2.088-24.642-10.753-32.92-1.913-15.732,2.015-35.514,9.572-56.266-11.945,20.433-17.231,34.79-17.4,50-19.364-13.212-46.182-17.891-46.182-17.891s63.618,18.324,56.406,56.693c-3.646,19.4-15.027,39.162-15.027,39.162s6.031-7.089,11.921-15.661c-4.008,25.665-5.59,49.957.869,69.7-4.556-1.746-9.24-4.668-14.5-9.586C681.866,595.843,693.364,596.3,706.343,598.576Z" transform="translate(-183.369 -105)"/><path d="M587.035,648.439c10.246-5.635,45.765,2.22,58.4,2.049s23.224-17.247,23.224-17.247-11.713,10.295-22.029,11.953C636.01,646.9,598.306,637,587.035,648.439Z" transform="translate(-183.369 -105)"/><path d="M521.121,906.122c-7,3.586-47.132,5.806-47.132,5.806s41.325,2.732,47.132,1.024,17.588-26.3,17.588-26.3S528.122,902.536,521.121,906.122Z" transform="translate(-183.369 -105)"/><path d="M614.016,812.2a61.4,61.4,0,0,0-16.661,21.036c7.617-8.476,14.763-14.391,21.2-16.426,3.367-22.833,13.093-39.177,25.52-52.766C628.862,775.6,617.328,790.338,614.016,812.2Z" transform="translate(-183.369 -105)"/><path d="M513.607,411.418c-19.821,10.08-33.343,23.105-39.445,39.6a151.016,151.016,0,0,1-.286-28.557c-4.107,15.194-4.48,33.81-3.3,53.848C477.089,448.434,495.043,429.683,513.607,411.418Z" transform="translate(-183.369 -105)"/><path d="M531.936,143.432a429.387,429.387,0,0,1,134.9,83.333C640.827,191.763,603.687,161.3,531.936,143.432Z" transform="translate(-183.369 -105)"/><path d="M578.412,724.856c1.555-2.551-6.233-34.409-6.233-34.409s2.305,23.938,2.647,29.371-7.941,10.758-7.941,10.758S576.23,728.434,578.412,724.856Z" transform="translate(-183.369 -105)"/><path d="M461.847,872.31v7.344c13.442-8.64,32.851-12.9,53.3-16.394C494.208,864.014,474.237,865.457,461.847,872.31Z" transform="translate(-183.369 -105)"/><path d="M537.286,476.309c34.519-13.646,69.383-17.293,104.735-6.717C602.19,448.778,568.64,457.4,537.286,476.309Z" transform="translate(-183.369 -105)"/><path d="M461.846,718.452c-6.451-8.2-17.559-13.1-29.675-15.482,13.722,6.524,25,16.783,29.675,28.688,4.681-11.9,15.953-22.164,29.675-28.688C479.405,705.353,468.3,710.255,461.846,718.452Z" transform="translate(-183.369 -105)"/><path d="M476.209,498.28c-7.577,2.3-14.363,3.9-14.363,23C463.613,511.156,467.7,502.923,476.209,498.28Z" transform="translate(-183.369 -105)"/><path d="M551.417,611.8c28.531,5.909,53.094,3.712,73.012-8C602.888,610.173,578.179,612.347,551.417,611.8Z" transform="translate(-183.369 -105)"/></svg>