<?xml version="1.0" encoding="utf-8"?>
<svg viewBox="0 0 556.954 829.634" xmlns="http://www.w3.org/2000/svg">
  <path d="M 505.932 450.171 C 507.467 465.532 511.061 476.798 515.656 483.894 C 522.035 484.029 529.105 483.793 537.895 485.066 C 546.152 486.263 505.669 553.051 479.142 566.53 C 468.928 598.351 474.441 633.057 477.749 664.786 C 464.957 678.588 454.465 694.623 449.415 723.069 C 412.22 739.059 361.059 805.126 345.229 822.04 C 337.034 830.793 305.17 819.683 277.711 819.683 C 266.543 819.683 254.645 821.52 243.908 823.112 C 242.45 823.53 240.886 823.779 239.162 823.805 C 225.621 825.73 214.551 826.699 210.192 822.04 C 194.364 805.126 143.204 739.059 106.006 723.069 C 100.956 694.623 90.464 678.585 77.672 664.786 C 80.98 633.057 86.492 598.348 76.28 566.53 C 49.752 553.051 9.269 486.263 17.526 485.066 C 26.316 483.796 33.386 484.029 39.764 483.894 C 44.362 476.793 47.954 465.532 49.488 450.171 C 39.237 427.302 7.394 353.706 4.51 315.739 C 0.47 262.546 2.827 174.855 58.372 102.647 C 113.917 30.44 232.959 6.201 277.709 7.716 C 322.463 6.201 441.501 30.439 497.046 102.647 C 552.591 174.856 554.949 262.55 550.908 315.739 C 548.025 353.706 516.181 427.302 505.932 450.171 Z M 499.561 481.334 C 499.432 480.938 499.306 480.542 499.182 480.143 C 499.059 480.446 498.926 480.739 498.78 481.023 C 499.04 481.131 499.301 481.234 499.561 481.334 Z" style="fill: rgb(255, 255, 255);" transform="matrix(0.9999999999999999, 0, 0, 0.9999999999999999, 0, 0)"/>
  <g transform="matrix(0.9999999999999999, 0, 0, 0.9999999999999999, 0, 0)">
    <path d="M 78.148 445.983 C 85.097 472.591 97.392 488.225 137.01 495.966 C 126.582 492.944 116.993 487.556 108.989 480.221 C 139.199 493.363 184.389 490.206 207.518 488.452 C 197.183 495.617 181.596 498.575 162.51 499.723 C 202.054 502.076 231.551 495.562 238.943 460.435 C 240.517 455.44 241.746 450.343 242.619 445.179 C 243.476 440.279 256.943 437.224 264.119 429.879 C 247.555 431.488 245.677 432.779 240.104 428.29 C 224.385 415.621 221.473 399.49 213.913 388.472 C 222.085 392.048 229.728 396.73 236.626 402.386 C 206.572 358.328 94.476 355.255 75.692 397.604 C 81.626 392.468 88.361 388.339 95.631 385.383 C 82.402 397.238 70.371 420.69 78.148 445.983 Z M 93.464 438.438 C 87.405 415.8 93.257 396.226 114.864 387.552 C 96.846 403.509 91.998 420.179 93.464 438.438 L 93.464 438.438 Z M 232.376 445.838 C 225.926 473.838 204.894 479.938 179.211 479.059 C 201.962 476.875 221.755 469.154 232.376 445.84 L 232.376 445.838 Z"/>
    <path d="M 238.946 475.93 C 227.833 499.383 207.365 512.898 177.309 516.23 C 205.76 521.888 226.642 510.366 238.946 475.93 Z"/>
    <path d="M 126.307 512.018 C 103.661 505.087 88.262 491.413 78.835 473.426 C 83.038 495.717 99.531 508.359 126.307 512.018 Z"/>
    <path d="M 138.147 328.39 C 185.306 333.726 226.147 346.731 249.485 388.954 C 235.185 337.639 190.631 328.351 138.147 328.39 Z"/>
    <path d="M 264.657 451.946 C 259.817 456.754 252.479 484.313 252.479 484.313 C 252.479 484.313 260.659 465.665 265.385 457.532 C 270.111 449.399 275.75 451.17 275.75 451.17 C 275.75 451.17 271.166 445.481 264.657 451.946 Z"/>
    <path d="M 230.155 536.19 C 205.946 571.922 212.949 586.981 231.22 589.165 C 219.461 583.191 212.597 568.852 230.155 536.19 Z"/>
    <path d="M 93.692 540.194 C 83.375 538.536 71.663 528.241 71.663 528.241 C 71.663 528.241 82.25 545.317 94.887 545.488 C 107.524 545.659 143.042 537.804 153.287 543.439 C 142.018 532 104.313 541.9 93.692 540.194 Z"/>
    <path d="M 201.614 781.655 C 201.614 781.655 213.395 806.245 219.202 807.955 C 225.009 809.665 266.334 806.931 266.334 806.931 C 266.334 806.931 226.202 804.711 219.202 801.125 C 212.202 797.539 201.614 781.655 201.614 781.655 Z"/>
    <path d="M 126.307 707.2 C 122.996 685.336 111.462 670.6 96.253 659.044 C 108.68 672.633 118.405 688.977 121.772 711.81 C 128.206 713.845 135.352 719.76 142.972 728.236 C 139.036 720.081 133.345 712.897 126.307 707.2 Z"/>
    <path d="M 269.749 371.309 C 270.927 351.271 270.554 332.655 266.449 317.461 C 267.256 326.968 267.16 336.529 266.162 346.018 C 260.062 329.523 246.538 316.498 226.718 306.418 C 245.28 324.683 263.231 343.434 269.749 371.309 Z"/>
    <path d="M 73.484 121.765 C 112.887 85.854 158.634 57.594 208.384 38.432 C 136.637 56.3 99.497 86.763 73.484 121.765 Z"/>
    <path d="M 165.498 614.818 C 165.839 609.385 168.145 585.447 168.145 585.447 C 168.145 585.447 160.357 617.305 161.912 619.856 C 164.093 623.434 173.438 625.576 173.438 625.576 C 173.438 625.576 165.156 620.252 165.498 614.818 Z"/>
    <path d="M 278.477 774.654 L 278.477 767.31 C 266.086 760.457 246.116 759.01 225.177 758.26 C 245.631 761.756 265.031 766.014 278.477 774.654 Z"/>
    <path d="M 203.037 371.309 C 171.684 352.399 138.137 343.778 98.302 364.592 C 133.655 354.016 168.518 357.663 203.037 371.309 Z"/>
    <path d="M 264.114 393.28 C 272.621 397.923 276.714 406.156 278.477 416.28 C 278.477 397.179 271.691 395.576 264.114 393.28 Z"/>
    <path d="M 115.895 498.8 C 135.813 510.513 160.375 512.71 188.906 506.8 C 162.145 507.347 137.436 505.173 115.895 498.8 Z"/>
    <path d="M 278.477 271.071 C 280.912 255.253 283.943 232.994 284.386 220.76 C 285.357 193.975 281.686 122.647 278.477 72.681 C 275.268 122.647 271.598 193.975 272.569 220.76 C 273.012 232.994 276.043 255.253 278.477 271.071 Z"/>
    <path d="M 328.308 404.382 C 335.206 398.726 342.849 394.044 351.021 390.468 C 343.462 401.483 340.55 417.617 324.831 430.286 C 319.258 434.778 317.38 433.486 300.815 431.875 C 307.987 439.218 321.455 442.275 322.315 447.175 C 323.189 452.339 324.417 457.436 325.991 462.431 C 333.383 497.558 362.88 504.072 402.424 501.719 C 383.338 500.571 367.752 497.613 357.417 490.448 C 380.545 492.202 425.736 495.359 455.946 482.217 C 447.942 489.552 438.353 494.94 427.925 497.962 C 467.542 490.221 479.837 474.587 486.787 447.979 C 494.564 422.686 482.532 399.234 469.299 387.379 C 476.572 390.336 483.312 394.465 489.248 399.602 C 470.461 357.251 358.365 360.324 328.308 404.382 Z M 332.554 447.834 C 343.174 471.148 362.967 478.869 385.718 481.055 C 360.038 481.933 339.008 475.83 332.556 447.834 L 332.554 447.834 Z M 471.466 440.434 C 472.932 422.175 468.084 405.505 450.066 389.548 C 471.674 398.22 477.527 417.794 471.468 440.432 L 471.466 440.434 Z"/>
    <path d="M 318.009 475.93 C 330.309 510.366 351.194 521.888 379.646 516.23 C 349.59 512.9 329.122 499.383 318.009 475.93 Z"/>
    <path d="M 478.119 473.426 C 468.693 491.413 453.293 505.087 430.647 512.018 C 457.422 508.359 473.917 495.717 478.119 473.426 Z"/>
    <path d="M 418.807 328.39 C 366.324 328.351 321.769 337.639 307.469 388.954 C 330.813 346.731 371.649 333.726 418.807 328.39 Z"/>
    <path d="M 324.431 556.075 C 302.99 516.458 289.031 471.375 285.838 468.303 C 282.645 465.231 278.476 470.974 278.476 470.974 C 278.476 470.974 274.302 465.229 271.114 468.303 C 267.926 471.377 253.962 516.458 232.522 556.075 C 213.207 591.763 254.607 588.065 254.607 588.065 C 246.752 587.496 239.397 584.56 241.97 579.518 C 241.97 579.518 251.47 577.133 258.753 579.081 C 259.631 579.316 257.368 576.055 251.647 574.181 C 261.637 575.206 267.358 577.938 270.431 581.467 C 272.992 584.508 274.961 588.002 276.237 591.767 C 273.737 581.521 274.437 574.567 278.476 558.414 C 282.517 574.567 283.22 581.521 280.715 591.767 C 281.991 588.002 283.96 584.508 286.521 581.467 C 289.595 577.938 295.316 575.206 305.305 574.181 C 299.585 576.06 297.322 579.321 298.2 579.081 C 305.481 577.133 314.982 579.518 314.982 579.518 C 317.555 584.56 310.2 587.496 302.345 588.065 C 302.346 588.065 343.746 591.763 324.431 556.075 Z M 235.766 567.346 C 242.99 555.918 249.163 543.858 254.209 531.315 C 251.545 548.823 244.88 561.082 235.767 567.346 L 235.766 567.346 Z M 302.744 531.315 C 307.79 543.858 313.963 555.918 321.186 567.346 C 312.074 561.082 305.409 548.823 302.745 531.315 L 302.744 531.315 Z"/>
    <path d="M 291.57 457.532 C 296.296 465.665 304.476 484.313 304.476 484.313 C 304.476 484.313 297.138 456.754 292.297 451.946 C 285.788 445.481 281.205 451.17 281.205 451.17 C 281.205 451.17 286.844 449.4 291.57 457.532 Z"/>
    <path d="M 325.731 589.165 C 344.002 586.981 351.005 571.922 326.796 536.19 C 344.357 568.852 337.493 583.191 325.731 589.165 Z"/>
    <path d="M 555.646 312.566 C 559.746 258.604 557.354 169.636 501.002 96.378 C 444.65 23.12 323.882 -1.47 278.477 0.067 C 233.077 -1.47 112.305 23.121 55.953 96.378 C -0.399 169.635 -2.79 258.6 1.308 312.566 C 4.234 351.085 36.54 425.75 46.94 448.952 C 45.384 464.536 41.74 475.96 37.075 483.165 C 30.604 483.302 23.431 483.065 14.514 484.354 C 6.137 485.568 47.208 553.326 74.121 567.001 C 84.482 599.282 78.89 634.495 75.534 666.685 C 88.512 680.685 99.156 696.956 104.279 725.815 C 142.018 742.037 193.921 809.064 209.979 826.224 C 218.289 835.104 250.621 823.833 278.479 823.833 C 306.337 823.833 338.664 835.104 346.979 826.224 C 363.039 809.064 414.943 742.037 452.679 725.815 C 457.802 696.956 468.446 680.688 481.424 666.685 C 478.068 634.495 472.475 599.285 482.837 567.001 C 509.75 553.326 550.821 485.568 542.444 484.354 C 533.526 483.062 526.354 483.302 519.882 483.165 C 515.22 475.965 511.574 464.536 510.017 448.952 C 520.415 425.75 552.721 351.085 555.646 312.566 Z M 443.284 716.594 C 402.642 731.962 352.72 808.138 343.384 814.741 C 334.048 821.344 291.872 813.588 278.476 813.588 C 265.08 813.588 222.904 821.344 213.568 814.741 C 204.232 808.138 154.312 731.962 113.668 716.594 C 111.154 689.227 101.926 676.272 87.712 662.12 C 92.435 626.847 95.238 593.52 89.032 569.303 C 90.165 569.248 91.309 569.177 92.463 569.089 C 97.299 585.337 99.211 607.382 100.799 630.073 C 101.67 608.746 102.492 587.443 98.47 568.521 C 100.403 568.306 102.349 568.064 104.3 567.806 C 107.737 580.22 108.983 596.415 109.629 613.645 C 111.075 596.46 111.803 580.212 110.209 566.991 L 114.884 566.326 C 117.448 576.077 118.484 588.034 119.049 600.665 C 120.328 587.965 121.049 575.877 120.094 565.609 C 121.275 565.453 122.447 565.304 123.612 565.163 C 130.401 594.656 127.89 609.237 124.959 621.742 C 123.644 626.348 122.633 631.036 121.932 635.774 C 120.259 646.418 121.353 657.314 125.109 667.413 C 124.835 662 124.835 656.576 125.109 651.163 C 134.254 682.585 159.582 720.332 182.825 738.45 C 182.825 738.45 168.78 722.004 162.049 707.485 C 161.872 705.51 161.366 700.655 161.366 700.655 C 158.893 693.709 152.366 689.855 148.246 676.805 C 151.359 681.949 155.308 686.537 159.931 690.381 C 159.418 681.521 160.7 677.797 162.331 676.431 C 166.058 682.101 170.165 685.174 175.831 688.076 C 179.731 698.408 186.261 701.467 192.3 701.31 C 196.625 709.482 202.749 710.491 209.063 710.821 L 212.516 723.766 L 212.058 714.145 C 216.335 719.102 222.581 721.919 229.127 721.845 L 234.062 736.745 L 232.239 724.422 C 238.511 730.016 244.985 730.465 250.533 729.81 C 251.699 735.92 253.249 740.771 255.179 743.462 L 254.053 730.556 C 265.897 736.903 271.695 737.648 275.673 735.946 L 278.479 748.336 L 278.479 734.182 L 278.479 748.335 L 281.285 735.945 C 285.262 737.645 291.061 736.902 302.904 730.555 L 301.778 743.461 C 303.708 740.77 305.258 735.919 306.425 729.809 C 311.972 730.464 318.446 730.015 324.718 724.421 L 322.896 736.744 L 327.83 721.844 C 334.377 721.918 340.623 719.101 344.9 714.144 L 344.441 723.765 L 347.895 710.82 C 354.208 710.49 360.332 709.481 364.658 701.309 C 370.697 701.466 377.23 698.409 381.127 688.075 C 386.795 685.175 390.902 682.1 394.627 676.43 C 396.258 677.796 397.539 681.52 397.027 690.38 C 401.646 686.535 405.592 681.947 408.703 676.805 C 404.577 689.859 398.056 693.705 395.583 700.655 C 395.583 700.655 395.077 705.51 394.899 707.485 C 388.168 722.004 374.123 738.45 374.123 738.45 C 397.367 720.332 422.694 682.585 431.84 651.163 C 432.114 656.576 432.114 662 431.84 667.413 C 435.596 657.314 436.69 646.418 435.018 635.774 C 434.316 631.036 433.304 626.348 431.99 621.742 C 429.06 609.242 426.549 594.656 433.338 565.163 C 434.501 565.303 435.674 565.452 436.855 565.609 C 435.903 575.877 436.622 587.966 437.9 600.665 C 438.467 588.034 439.5 576.077 442.066 566.326 L 446.741 566.991 C 445.147 580.212 445.875 596.46 447.32 613.645 C 447.967 596.415 449.213 580.22 452.65 567.806 C 454.6 568.064 456.55 568.306 458.48 568.521 C 454.457 587.443 455.28 608.746 456.151 630.073 C 457.738 607.382 459.651 585.337 464.487 569.089 C 465.64 569.177 466.784 569.248 467.918 569.303 C 461.712 593.517 464.518 626.847 469.238 662.12 C 455.025 676.272 445.798 689.227 443.284 716.594 Z M 180.747 635.519 L 181.422 645.3 L 184.175 635.835 C 186.914 637.12 189.073 639.385 190.225 642.183 C 189.202 648.585 188.88 655.08 189.265 661.552 C 182.478 664.832 179.942 655.582 179.337 652.746 C 178.576 647.166 178.872 641.493 180.21 636.023 C 180.368 635.834 180.549 635.665 180.747 635.519 Z M 209.347 644.444 L 209.996 657.595 L 213.243 641.97 C 213.787 641.833 214.352 641.799 214.908 641.87 C 217.648 642.239 220.513 645.178 222.976 650.148 L 223.415 651.034 C 223.167 658.783 223.839 668.406 224.825 678.667 C 220.563 680.121 215.369 680.232 208.774 670.48 L 208.187 669.785 C 206.838 661.836 206.431 653.885 208.032 645.879 L 208.726 645.1 C 208.931 644.869 209.136 644.652 209.342 644.444 L 209.347 644.444 Z M 228.896 649.493 L 229.577 663.401 L 232.842 647.561 C 236.299 646.673 240.872 647.536 247.023 653.061 C 246.742 663.742 247.035 674.43 247.901 685.079 C 240.344 687.939 234.213 685.935 228.707 678.797 L 228.507 678.607 C 227.314 668.661 226.553 659.178 227.054 651.047 L 227.279 650.811 C 227.767 650.367 228.306 649.918 228.891 649.493 L 228.896 649.493 Z M 251.73 653.658 L 252.424 671.45 L 255.779 651.062 C 258.253 650.09 260.892 649.607 263.55 649.641 C 268.011 649.884 272.308 651.403 275.93 654.017 C 276.137 665.853 277.463 677.75 276.176 690.361 C 265.459 694.081 257.15 692.189 251.697 685.054 L 251.476 684.86 C 250.187 675.283 249.857 665.602 250.491 655.96 C 250.691 655.097 251.117 654.302 251.725 653.658 L 251.73 653.658 Z M 301.186 651.058 L 304.531 671.45 L 305.226 653.658 C 305.836 654.301 306.263 655.095 306.464 655.958 C 307.098 665.6 306.768 675.281 305.48 684.858 L 305.259 685.052 C 299.805 692.187 291.497 694.079 280.779 690.359 C 279.493 677.748 280.819 665.851 281.026 654.015 C 284.648 651.401 288.945 649.882 293.405 649.639 C 296.065 649.605 298.706 650.089 301.181 651.062 L 301.186 651.058 Z M 324.123 647.558 L 327.388 663.398 L 328.068 649.49 C 328.653 649.915 329.193 650.364 329.689 650.804 L 329.914 651.04 C 330.414 659.171 329.654 668.654 328.461 678.6 L 328.261 678.79 C 322.755 685.928 316.623 687.932 309.066 685.072 C 309.933 674.423 310.227 663.735 309.945 653.054 C 316.088 647.536 320.66 646.673 324.118 647.561 L 324.123 647.558 Z M 343.723 641.967 L 346.971 657.592 L 347.619 644.441 C 347.826 644.649 348.033 644.866 348.24 645.1 L 348.934 645.879 C 350.534 653.879 350.128 661.836 348.779 669.785 L 348.193 670.48 C 341.593 680.232 336.403 680.121 332.142 678.667 C 333.127 668.406 333.8 658.783 333.552 651.034 L 333.991 650.148 C 336.453 645.178 339.318 642.239 342.058 641.87 C 342.612 641.8 343.174 641.834 343.716 641.97 L 343.723 641.967 Z M 372.786 635.832 L 375.531 645.3 L 376.206 635.519 C 376.404 635.663 376.584 635.831 376.742 636.019 C 378.08 641.489 378.377 647.162 377.616 652.742 C 377.011 655.578 374.474 664.828 367.687 661.548 C 368.072 655.076 367.75 648.581 366.727 642.179 C 367.88 639.382 370.04 637.119 372.779 635.835 L 372.786 635.832 Z M 427.178 564.544 C 425.304 571.1 423.478 582.295 423.307 601.202 C 421.237 589.78 419.767 570.019 422.141 564.544 L 427.178 564.544 Z M 344.21 708.438 L 343.615 696.367 L 340.16 712.992 C 337.245 715.806 333.381 717.425 329.331 717.528 C 331.382 710.954 332.282 699.822 331.995 683.989 C 337.825 685.095 343.066 683.153 348.643 677.789 C 348.966 687.49 347.873 697.187 345.4 706.573 L 344.21 708.438 Z M 324.423 718.326 L 323.804 705.672 L 320.349 722.431 C 316.623 725.331 312.449 726.331 307.115 725.731 C 308.741 713.919 309.364 701.99 308.976 690.072 C 315.852 691.182 322.886 689.507 328.525 685.419 C 329.107 697.202 328.107 707.477 325.665 716.378 L 324.423 718.326 Z M 169.323 678.582 L 166.745 666 L 166.22 674.4 L 166.212 674.387 C 164.539 669.697 164.104 664.656 164.947 659.749 C 168.37 661.269 172.272 661.288 175.709 659.8 C 175.051 668.085 175.3 676.416 176.451 684.647 C 173.76 683.028 171.352 680.979 169.324 678.582 L 169.323 678.582 Z M 184.033 694.234 L 181.421 682.675 L 180.975 689.127 C 180.775 688.633 180.575 688.112 180.39 687.557 L 179.931 686.67 C 178.797 678.857 178.509 670.945 179.074 663.07 C 181.51 666.11 185.441 667.532 189.258 666.753 C 189.058 677.653 189.538 687.901 191.208 696.987 C 188.524 697.193 185.889 696.183 184.031 694.234 L 184.033 694.234 Z M 199.861 704.046 L 196.261 687.798 L 195.731 697.871 L 194.719 695.84 C 193.577 689.147 193.256 680.861 193.333 671.802 C 196.964 675.516 201.045 675.936 204.78 675.34 C 204.435 686.095 205.527 696.847 208.028 707.313 C 205.012 707.194 202.128 706.041 199.862 704.046 L 199.861 704.046 Z M 216.794 712.992 L 213.339 696.367 L 212.739 708.438 L 211.549 706.572 C 209.075 697.186 207.983 687.489 208.305 677.788 C 213.882 683.153 219.124 685.095 224.954 683.988 C 224.667 699.821 225.566 710.953 227.617 717.527 C 223.569 717.422 219.708 715.804 216.795 712.992 L 216.794 712.992 Z M 236.605 722.431 L 233.15 705.672 L 232.531 718.326 L 231.289 716.382 C 228.847 707.482 227.846 697.206 228.428 685.423 C 234.067 689.511 241.101 691.186 247.977 690.076 C 247.59 701.994 248.212 713.923 249.838 725.735 C 244.501 726.334 240.331 725.329 236.606 722.431 L 236.605 722.431 Z M 258.156 728.323 L 254.031 707.259 L 254.031 725.859 C 253.998 725.838 253.965 725.818 253.931 725.796 L 253.052 725.234 L 252.952 725.252 C 251.115 718.405 251.102 706.929 251.602 692.307 C 257.43 696.28 270.045 697.202 276.108 695.65 C 276.763 706.15 276.193 719.093 275.926 731.059 C 270.707 733.61 264.572 731.847 258.157 728.323 L 258.156 728.323 Z M 278.476 655.972 C 278.521 655.934 278.566 655.899 278.611 655.862 L 278.476 656.122 L 278.342 655.862 C 278.387 655.9 278.431 655.934 278.477 655.972 L 278.476 655.972 Z M 281.027 731.061 C 280.759 719.095 280.19 706.161 280.845 695.652 C 286.908 697.204 299.522 696.282 305.351 692.309 C 305.851 706.931 305.838 718.409 304.001 725.254 L 303.901 725.236 L 303.023 725.798 L 302.923 725.861 L 302.923 707.261 L 298.801 728.325 C 292.383 731.847 286.248 733.61 281.031 731.061 L 281.027 731.061 Z M 352.171 675.34 C 355.907 675.94 359.987 675.516 363.619 671.802 C 363.696 680.861 363.374 689.147 362.233 695.84 L 361.221 697.871 L 360.691 687.8 L 357.091 704.048 C 354.824 706.043 351.939 707.197 348.921 707.315 C 351.423 696.849 352.516 686.095 352.171 675.34 Z M 367.696 666.748 C 371.512 667.527 375.444 666.105 377.879 663.065 C 378.444 670.94 378.157 678.852 377.022 686.665 L 376.563 687.552 C 376.373 688.107 376.178 688.628 375.978 689.122 L 375.533 682.67 L 372.921 694.229 C 371.063 696.175 368.429 697.184 365.746 696.977 C 367.415 687.9 367.895 677.652 367.696 666.748 L 367.696 666.748 Z M 381.245 659.798 C 384.682 661.286 388.585 661.267 392.008 659.747 C 392.85 664.654 392.415 669.695 390.743 674.385 L 390.735 674.398 L 390.21 665.998 L 387.631 678.582 C 385.603 680.979 383.195 683.027 380.504 684.645 C 381.656 676.415 381.904 668.084 381.245 659.8 L 381.245 659.798 Z M 388.445 631.878 L 391.329 642.822 L 391.989 632.266 C 393.272 639.866 393.25 648.022 391.713 653.678 C 388.713 656.118 385.335 656.178 381.168 653.928 C 381.805 648.4 381.644 642.81 380.691 637.328 C 383.393 634.254 385.957 632.547 388.45 631.878 L 388.445 631.878 Z M 359.352 639.824 L 362.361 653.411 L 362.939 642.411 L 363.397 643.376 C 364.729 649.267 364.865 655.365 363.797 661.31 L 363.311 662.447 C 360.555 672.716 356.657 672.827 352.322 670.472 C 353.426 661.939 353.403 653.299 352.253 644.772 C 354.747 640.673 357.394 639.713 359.357 639.824 L 359.352 639.824 Z M 204.631 670.467 C 200.296 672.822 196.398 672.711 193.641 662.442 L 193.155 661.305 C 192.087 655.36 192.223 649.262 193.555 643.371 L 194.013 642.406 L 194.591 653.406 L 197.6 639.819 C 199.562 639.708 202.209 640.668 204.7 644.759 C 203.549 653.288 203.525 661.932 204.631 670.467 Z M 175.781 653.928 C 171.614 656.177 168.236 656.118 165.237 653.678 C 163.7 648.022 163.677 639.862 164.961 632.266 L 165.621 642.822 L 168.504 631.878 C 170.998 632.547 173.562 634.254 176.258 637.327 C 175.305 642.809 175.145 648.4 175.781 653.928 Z M 133.654 601.205 C 133.484 582.298 131.654 571.105 129.784 564.547 L 134.821 564.547 C 137.195 570.022 135.725 589.783 133.654 601.205 L 133.654 601.205 Z M 522.974 493.576 C 535.197 495.72 489.92 549.888 472.655 553.855 C 454.326 558.068 430.683 547.155 407.423 553.514 C 385.565 559.491 374.295 601.84 374.295 601.84 C 378.809 593.03 384.369 584.796 390.856 577.318 C 393.664 596.99 398.834 612.938 398.647 621.68 C 398.565 625.523 397.247 626.227 394.535 627.871 C 389.28 627.415 384.035 628.907 378.854 632.355 C 377.738 631.512 376.39 631.031 374.992 630.977 C 371.834 630.85 368.448 632.755 364.466 636.917 C 363.595 636.327 362.605 635.936 361.566 635.771 C 358.744 635.317 355.5 636.371 351.518 639.071 L 350.363 628.727 L 349.182 638.818 C 347.078 637.265 344.415 636.673 341.851 637.188 C 337.994 637.758 334.518 639.828 332.181 642.949 L 329.739 630.073 L 329.739 644.242 C 325.09 642.123 318.107 640.725 309.121 646.903 C 308.26 641.179 307.021 635.613 304.197 630.703 C 305.057 636.076 305.525 641.504 305.597 646.945 C 296.559 643.079 289.153 643.609 281.072 648.69 L 278.48 637.249 L 275.889 648.69 C 267.807 643.609 260.401 643.079 251.364 646.945 C 251.436 641.504 251.904 636.076 252.764 630.703 C 249.945 635.617 248.701 641.183 247.841 646.903 C 238.855 640.725 231.871 642.123 227.223 644.242 L 227.223 630.073 L 224.78 642.949 C 222.443 639.828 218.968 637.758 215.111 637.188 C 212.546 636.673 209.884 637.265 207.779 638.818 L 206.598 628.727 L 205.444 639.071 C 201.461 636.371 198.217 635.317 195.396 635.771 C 194.357 635.937 193.367 636.328 192.496 636.917 C 188.515 632.755 185.128 630.85 181.971 630.977 C 180.573 631.031 179.225 631.512 178.109 632.355 C 172.931 628.907 167.682 627.415 162.427 627.871 C 159.72 626.227 158.398 625.523 158.316 621.68 C 158.129 612.938 163.298 596.99 166.107 577.318 C 172.594 584.796 178.154 593.03 182.668 601.84 C 182.668 601.84 171.397 559.491 149.539 553.514 C 126.28 547.154 102.639 558.068 84.307 553.855 C 67.042 549.888 21.766 495.72 33.989 493.576 C 46.967 491.299 58.465 490.843 67.914 470.976 C 62.656 475.894 57.972 478.816 53.414 480.562 C 59.873 460.82 58.292 436.528 54.284 410.862 C 60.174 419.434 66.204 426.523 66.204 426.523 C 66.204 426.523 54.824 406.762 51.177 387.361 C 43.965 348.992 107.584 330.668 107.584 330.668 C 107.584 330.668 80.766 335.347 61.401 348.559 C 61.237 333.359 55.95 318.997 44.001 298.564 C 51.559 319.316 55.487 339.098 53.574 354.83 C 44.909 363.108 39.674 373.896 42.82 387.75 C 37.965 374.045 34.67 362.601 28.883 341.141 C 31.961 364.891 36.414 388.443 42.22 411.678 C 32.386 385.638 18.211 343.785 15.654 312.908 C 8.368 224.926 27.945 161.951 51.177 125.147 C 46.477 145.87 47.877 169.53 51.856 192.69 C 53.619 160.917 55.487 128.548 69.256 102.09 C 131.106 38.075 218.156 16.602 278.483 14.075 C 338.806 16.602 425.861 38.075 487.711 102.09 C 501.476 128.552 503.343 160.921 505.111 192.69 C 509.089 169.53 510.488 145.87 505.791 125.147 C 529.022 161.947 548.599 224.926 541.313 312.908 C 538.756 343.785 524.582 385.638 514.747 411.678 C 520.554 388.444 525.007 364.892 528.085 341.141 C 522.298 362.601 519.002 374.041 514.147 387.75 C 517.296 373.896 512.059 363.108 503.394 354.83 C 501.481 339.098 505.409 319.316 512.966 298.564 C 501.021 318.997 495.735 333.354 495.566 348.564 C 476.202 335.352 449.384 330.673 449.384 330.673 C 449.384 330.673 513.002 348.997 505.79 387.366 C 502.144 406.766 490.763 426.528 490.763 426.528 C 490.763 426.528 496.794 419.439 502.684 410.867 C 498.676 436.532 497.094 460.824 503.553 480.567 C 498.997 478.821 494.313 475.899 489.053 470.981 C 498.497 490.843 509.995 491.3 522.974 493.576 Z"/>
    <path d="M 403.666 543.439 C 413.912 537.804 449.431 545.659 462.066 545.488 C 474.701 545.317 485.29 528.241 485.29 528.241 C 485.29 528.241 473.577 538.536 463.261 540.194 C 452.641 541.9 414.937 532 403.666 543.439 Z"/>
    <path d="M 337.752 801.122 C 330.752 804.708 290.62 806.928 290.62 806.928 C 290.62 806.928 331.945 809.66 337.752 807.952 C 343.559 806.244 355.34 781.652 355.34 781.652 C 355.34 781.652 344.753 797.536 337.752 801.122 Z"/>
    <path d="M 430.647 707.2 C 423.61 712.898 417.921 720.081 413.986 728.236 C 421.603 719.76 428.749 713.845 435.186 711.81 C 438.553 688.977 448.279 672.633 460.706 659.044 C 445.493 670.6 433.959 685.338 430.647 707.2 Z"/>
    <path d="M 330.238 306.418 C 310.417 316.498 296.895 329.523 290.793 346.018 C 289.796 336.529 289.7 326.968 290.507 317.461 C 286.4 332.655 286.027 351.271 287.207 371.309 C 293.72 343.434 311.674 324.683 330.238 306.418 Z"/>
    <path d="M 348.567 38.432 C 398.317 57.594 444.064 85.854 483.467 121.765 C 457.458 86.763 420.318 56.3 348.567 38.432 Z"/>
    <path d="M 395.043 619.856 C 396.598 617.305 388.81 585.447 388.81 585.447 C 388.81 585.447 391.115 609.385 391.457 614.818 C 391.799 620.251 383.516 625.576 383.516 625.576 C 383.516 625.576 392.861 623.434 395.043 619.856 Z"/>
    <path d="M 278.478 767.31 L 278.478 774.654 C 291.92 766.014 311.329 761.754 331.778 758.26 C 310.839 759.014 290.868 760.457 278.478 767.31 Z"/>
    <path d="M 353.917 371.309 C 388.436 357.663 423.3 354.016 458.652 364.592 C 418.821 343.778 385.271 352.4 353.917 371.309 Z"/>
    <path d="M 278.477 613.452 C 272.026 605.252 260.918 600.352 248.802 597.97 C 262.524 604.494 273.802 614.753 278.477 626.658 C 283.158 614.758 294.43 604.494 308.152 597.97 C 296.036 600.353 284.931 605.255 278.477 613.452 Z"/>
    <path d="M 292.84 393.28 C 285.263 395.58 278.477 397.18 278.477 416.28 C 280.244 406.156 284.331 397.923 292.84 393.28 Z"/>
    <path d="M 368.048 506.8 C 396.579 512.709 421.142 510.512 441.06 498.8 C 419.519 505.173 394.81 507.347 368.048 506.8 Z"/>
  </g>
</svg>